# xmcd
#
# Track frame offsets:
#	150
#	18274
#	40963
#	59246
#	84485
#	99132
#	124045
#	142068
#	167697
#	185281
#	219082
#	241515
#	254373
#	271333
#	289036
#
# Disc length: 4071 seconds
#
# Revision: 1
# Processed by: cddbd v1.5.2PL0 Copyright (c) Steve Scherf et al.
# Submitted via: audiograbber 1.83.01
#
DISCID=ca0fe50f
DTITLE=Jean Jacques Goldman - Singulier 81/89 Cd2
DYEAR=1900
DGENRE=Pop
TTITLE0=La Vie Par Procuration
TTITLE1=Parler D'ma Vie
TTITLE2=Je Marche Seul
TTITLE3=Famille
TTITLE4=Elle Attend
TTITLE5=Pas Toi
TTITLE6=Il Changeait La Vie
TTITLE7=Là-Bas
TTITLE8=Elle A Fait Un Bébé Toute Seule
TTITLE9=Puisque Tu Pars
TTITLE10=C'est Ta Chance
TTITLE11=Reprendre C'est Voler
TTITLE12=Filles Faciles
TTITLE13=Doux
TTITLE14=Il Y A
EXTD=
EXTT0=
EXTT1=
EXTT2=
EXTT3=
EXTT4=
EXTT5=
EXTT6=
EXTT7=
EXTT8=
EXTT9=
EXTT10=
EXTT11=
EXTT12=
EXTT13=
EXTT14=
PLAYORDER=
